<svg width="358" height="358" viewBox="0 0 358 358" fill="none" xmlns="http://www.w3.org/2000/svg">
<rect width="358" height="358" fill="white"/>
<path fill-rule="evenodd" clip-rule="evenodd" d="M162.033 137.566C161.265 136.493 159.333 135.474 157.642 135.558C155.951 135.642 154.358 136.341 152.84 137.084C154 137.929 155.303 138.58 156.679 138.998C157.114 139.131 158.1 139.521 160.225 138.644" fill="#E7EAEE"/>
<path fill-rule="evenodd" clip-rule="evenodd" d="M43.6072 254.214C5.33521e-05 195.048 116.815 179.136 186.204 133.715C224.015 108.964 241.309 81.8882 273.989 82.6235C340.8 84.1265 343.533 210.329 329.346 233C275.849 318.486 61.6564 278.703 43.6072 254.214Z" fill="#E7EAEE"/>
<path fill-rule="evenodd" clip-rule="evenodd" d="M181.864 174.079C196.436 174.079 211.264 175.456 224.342 181.992C225.884 182.763 227.663 184.194 227.107 185.843C226.898 186.462 226.388 186.921 225.881 187.326C219.955 192.06 212.078 193.263 204.58 194.114C201.666 194.444 198.749 194.746 195.827 194.991C172.642 196.933 149.164 195.228 126.489 189.957C125.154 189.647 123.599 189.119 123.228 187.782C122.778 186.157 124.408 184.768 125.851 183.927C137.021 177.415 149.785 173.742 162.663 173.333C160.372 173.69 193.148 174.163 181.864 174.079Z" fill="white"/>
<path fill-rule="evenodd" clip-rule="evenodd" d="M265.472 127.819C262.464 133.874 259.95 140.29 259.257 147.025C259.227 147.315 259.204 147.625 259.339 147.883C259.611 148.406 260.331 148.432 260.915 148.393C274.458 147.501 288.455 150.166 299.945 157.443C303.872 159.93 307.48 162.928 311.553 165.164C311.732 165.263 311.937 165.363 312.134 165.306C312.332 165.248 312.451 165.05 312.551 164.869C315.026 160.369 317.218 155.711 319.111 150.933C319.781 149.24 320.421 147.505 320.587 145.689C321.005 141.117 317.998 136.452 313.682 134.979C302.62 131.203 291.558 127.426 280.496 123.65C278.474 122.959 276.424 122.263 274.295 122.109C272.165 121.955 269.911 122.401 268.269 123.775C267.005 124.833 266.207 126.339 265.472 127.819Z" fill="white"/>
<path d="M224.805 271.579C224.783 272.719 227.519 273.566 228.355 272.787C229.19 272.008 229.289 270.742 229.334 269.602C229.93 254.238 230.048 239.34 229.732 223.967L270.105 234.414L268.301 275.23C268.246 276.387 270.038 276.817 270.911 276.055C271.785 275.293 271.928 274.012 272.009 272.857C272.84 260.968 272.988 249.023 273.642 237.142C273.989 230.847 282.089 230.847 289.96 223.085C293.879 219.22 297.224 213.887 297.224 213.887C297.846 228.323 299.047 242.795 297.964 257.204C297.882 258.299 299.579 258.743 300.417 258.031C301.222 257.347 301.388 256.2 301.472 255.14L301.482 255.008C302.597 239.925 303.886 207.648 305.493 186.505C306.102 178.5 307.825 170.831 308.835 166.281C309.28 164.272 307.886 164.307 305.095 163.054C303.953 162.541 301.4 166.302 300.243 176.979L300.185 177.541C299.767 181.788 299.402 189.804 299.09 201.59C298.585 204.291 295.542 204.915 289.96 203.463L289.741 203.405C284.02 201.88 275.245 199.094 263.416 195.048L263.334 193.933C262.045 176.015 262.484 163.494 264.651 156.368L264.718 156.149C268.125 145.302 262.438 149.787 261.792 150.653C257.465 156.455 256.533 163.868 256.561 170.552L256.644 190.647C256.643 192.745 256.543 194.935 255.393 196.675C254.407 198.168 252.792 199.099 251.212 199.957L231.684 210.517C229.884 211.497 228.093 212.536 226.676 214.007C225.118 215.625 224.057 217.88 224.417 220.095C224.657 221.572 225.261 222.721 226.228 223.543L225.874 233.879C225.336 249.976 224.979 262.543 224.805 271.579Z" fill="white"/>
<path d="M129.376 272.533C129.398 273.674 127.617 274.044 126.781 273.265C125.946 272.486 125.847 271.22 125.802 270.079C125.206 254.715 124.61 239.34 124.927 223.967C111.444 228.002 97.9606 232.037 84.4776 236.073C85.1042 249.125 85.7309 262.178 86.3576 275.23C86.4131 276.387 84.6208 276.817 83.7473 276.055C82.8738 275.293 82.7306 274.012 82.6498 272.857C81.8181 260.968 81.2734 249.058 81.0162 237.142C80.9842 235.658 79.8093 234.481 78.7156 233.474C71.622 226.945 64.5284 220.416 57.4349 213.887C56.8127 228.323 57.0438 242.795 58.1265 257.204C58.2088 258.299 56.5114 258.743 55.6734 258.031C54.8353 257.319 54.6893 256.103 54.6084 255.008C52.8636 231.411 54.0468 207.671 52.2862 184.075C51.863 178.403 51.2502 172.66 49.1653 167.367C52.8984 166.499 96.508 157.526 92.8134 151.853C97.7926 156.327 98.1252 163.868 98.0975 170.552C98.0703 177.111 98.0432 183.67 98.016 190.229C98.0068 192.451 98.039 194.819 99.2652 196.675C100.291 198.227 101.997 199.173 103.636 200.059C109.902 203.448 116.169 206.836 122.435 210.225C124.412 211.294 126.424 212.389 127.983 214.007C129.541 215.625 130.602 217.88 130.241 220.095C129.881 222.31 127.776 224.273 125.547 223.975C127.909 224.477 127.681 223.945 128.431 223.543C128.746 239.873 129.061 256.203 129.376 272.533Z" fill="white"/>
<path d="M52.0675 171.54C51.4184 169.577 50.7692 167.614 50.1201 165.651C51.0243 165.876 83.2315 154.499 89.1551 152.779C89.7341 152.611 90.062 152.535 90.085 152.572C93.9733 158.721 94.0634 166.444 94.031 173.718C94.001 180.474 93.971 187.229 93.9409 193.984C93.9343 195.472 93.6345 197.36 92.1904 197.723C83.6458 199.873 75.2224 202.504 66.9737 205.6C64.5411 206.513 61.9978 207.483 59.4195 207.161C58.0641 206.991 56.7813 206.47 55.5167 205.954C54.6962 205.619 53.7362 205.089 53.7385 204.203C53.7577 196.964 53.7769 189.725 53.7961 182.486C53.8012 180.567 53.8055 178.637 53.4931 176.744C53.2001 174.967 52.6327 173.249 52.0675 171.54Z" fill="white"/>
<path fill-rule="evenodd" clip-rule="evenodd" d="M178.807 0.322096C178.583 0.38453 178.228 0.342063 178.264 0.111937C178.398 0.0430988 178.548 -0.0277329 178.694 0.0109766C178.84 0.0496862 178.934 0.260581 178.817 0.355427L178.807 0.322096Z" fill="#00160A"/>
<path fill-rule="evenodd" clip-rule="evenodd" d="M36.2799 151.354L40.6407 162.644C41.0602 163.73 41.5272 164.879 42.4783 165.556C44.067 166.687 46.2627 166.052 48.0786 165.337C51.773 163.882 55.3966 162.258 59.02 160.633C62.9569 158.868 66.8936 157.103 70.9208 155.557C78.6546 152.586 86.8591 150.413 95.1398 150.787C96.4619 150.847 97.5487 149.6 97.7832 148.303C98.0176 147.007 97.6205 145.688 97.2279 144.43L94.267 134.942C93.2583 131.71 92.199 128.384 90.0104 125.793C87.8218 123.203 84.1912 121.512 80.9675 122.587L41.9547 135.593C37.362 137.124 34.2438 142.172 34.9432 146.944C35.1664 148.467 35.7251 149.918 36.2799 151.354ZM87.771 124.806C90.9544 127.569 92.4637 131.734 93.7791 135.729C94.9061 139.151 95.9843 142.594 96.8042 146.103C96.9852 146.877 97.1535 147.688 96.9616 148.459C96.7696 149.231 96.1063 149.947 95.3079 149.93C87.4557 149.765 79.6747 151.589 72.2704 154.196C66.8478 156.106 61.59 158.435 56.3324 160.763L56.332 160.764L56.3316 160.764L56.3312 160.764L56.3308 160.764L56.3304 160.764L56.33 160.764L56.3296 160.765L56.3292 160.765L56.3288 160.765L56.3284 160.765L56.328 160.765L56.3276 160.765L56.3272 160.766L56.3268 160.766L56.3264 160.766L56.326 160.766L56.3256 160.766L56.3252 160.766L56.3248 160.767L56.3244 160.767C54.4055 161.617 52.4867 162.467 50.5599 163.296C49.006 163.965 47.4268 164.626 45.7543 164.888C44.4045 165.099 42.6611 164.788 42.3003 163.476C41.6715 161.189 40.7358 159.007 39.7994 156.824C39.1832 155.387 38.5668 153.95 38.0373 152.482C36.7033 148.782 35.9369 144.666 37.2068 140.944C37.6003 139.791 38.2052 138.675 39.1477 137.898C39.9831 137.21 41.026 136.832 42.0468 136.468C54.6452 131.974 67.3312 127.723 80.0952 123.719C81.4904 123.281 82.9476 122.841 84.3927 123.067C85.662 123.265 86.8025 123.966 87.771 124.806ZM50.1199 165.651L52.0673 171.54C52.6325 173.249 53.1999 174.967 53.4929 176.744C53.8053 178.637 53.801 180.567 53.7959 182.486L53.7383 204.203C53.736 205.089 54.6959 205.619 55.5165 205.954C56.7811 206.47 58.0639 206.991 59.4192 207.161C61.9667 207.479 64.48 206.536 66.8861 205.633L66.9734 205.6C75.2222 202.504 83.6456 199.873 92.1902 197.723C93.6342 197.36 93.9341 195.472 93.9407 193.984L94.0308 173.718C94.0631 166.444 93.9731 158.721 90.0847 152.572C89.8271 152.164 89.3904 151.711 88.9449 151.896C91.1036 155.659 92.4539 159.882 92.878 164.199C93.0732 166.185 93.0747 168.184 93.076 170.179L93.0918 194.019C93.0926 195.22 92.8597 196.745 91.6962 197.048C84.3079 198.97 76.8992 200.899 69.7901 203.68C69.51 203.79 69.2288 203.901 68.9467 204.013C65.4105 205.41 61.7203 206.868 58.0125 206.185C56.2671 205.864 54.3585 204.679 54.3932 202.906L54.6596 189.302C54.8017 182.048 54.8986 174.546 52.0805 167.86C51.6834 166.918 51.1125 165.898 50.1199 165.651ZM95.4665 200.591C86.2337 202.138 77.1694 204.634 68.4737 208.025C67.0487 208.58 65.6338 209.16 64.2189 209.739L62.2026 210.565C61.7449 210.115 62.4309 209.436 63.0225 209.172C72.8133 204.809 83.2178 201.75 93.8546 200.107C94.46 200.014 95.2605 200.029 95.4665 200.591ZM82.1295 136.517C82.0258 137.013 82.2173 137.539 82.5365 137.926C82.8845 138.348 83.4772 138.64 83.9646 138.404C84.6451 138.075 84.5957 137.026 84.1936 136.374C83.962 135.998 83.6096 135.653 83.1772 135.626C82.6837 135.594 82.2333 136.022 82.1295 136.517ZM83.5807 137.692C83.2291 137.849 82.7718 137.503 82.8146 137.112C82.8573 136.721 83.378 136.488 83.6868 136.721C83.9957 136.955 83.9323 137.534 83.5807 137.692ZM62.0117 144.2C61.4938 143.608 61.3844 142.526 61.975 142.022C62.0892 141.924 62.2247 141.853 62.3687 141.834C62.6957 141.792 62.9978 142.02 63.2421 142.261C63.7844 142.795 64.2299 143.724 63.7732 144.346C63.356 144.915 62.4725 144.727 62.0117 144.2ZM62.9559 142.894C62.8317 142.766 62.6817 142.627 62.5121 142.653C62.1868 142.704 62.1942 143.233 62.3522 143.547C62.5303 143.902 62.9654 144.23 63.2361 143.954C63.5139 143.671 63.2316 143.18 62.9559 142.894ZM52.3366 146.295C52.0422 146.54 52.0057 146.96 52.0396 147.33C52.0792 147.763 52.1939 148.206 52.4827 148.542C52.7715 148.879 53.2663 149.083 53.7005 148.946C54.1185 148.815 54.3873 148.396 54.4134 147.978C54.4394 147.561 54.2593 147.152 54.0086 146.808C53.6311 146.29 52.8357 145.881 52.3366 146.295ZM52.905 146.959C53.1612 146.787 53.6182 147.075 53.4552 147.33L53.5874 147.594C53.9174 147.632 53.8548 148.188 53.5311 148.26C53.2074 148.332 52.8987 148.067 52.7686 147.776C52.6457 147.502 52.6488 147.132 52.905 146.959ZM70.9159 131.358C71.2504 131.418 71.5905 131.533 71.8272 131.776C72.0639 132.019 72.1648 132.417 71.9863 132.706C71.8321 132.955 71.5255 133.058 71.2402 133.127C70.8226 133.229 70.3777 133.295 69.9677 133.166C69.5576 133.038 69.1976 132.665 69.2137 132.236C69.2411 131.513 70.201 131.229 70.9159 131.358ZM70.6407 132.089C70.346 131.924 69.9172 132.11 69.8375 132.437C70.3326 132.735 71.0017 132.715 71.478 132.388C71.378 132.082 70.9654 131.927 70.6875 132.091L70.6407 132.089ZM127.944 271.579L126.999 222.589C126.249 222.99 126.171 224.014 126.189 224.863L127.21 272.388C125.832 272.482 125.298 270.649 125.24 269.273C124.59 253.864 124.215 238.443 124.115 223.02C126.344 223.319 128.449 221.355 128.809 219.14C129.17 216.925 128.109 214.67 126.55 213.052C124.992 211.434 122.98 210.339 121.003 209.27L102.204 199.105C100.565 198.218 98.8593 197.273 97.8331 195.72C96.6069 193.865 96.5747 191.496 96.584 189.274L96.6654 169.598C96.6931 162.914 96.3606 155.372 91.3813 150.899C95.0759 156.571 96.0327 163.594 96.059 170.358C96.0689 172.908 95.9604 175.46 95.8519 178.011C95.6726 182.226 95.4935 186.439 95.8491 190.639C96.0175 192.627 96.3355 194.686 97.4639 196.334C98.3721 197.66 99.7291 198.606 101.091 199.464C104.32 201.498 107.756 203.212 111.188 204.923C116.568 207.607 121.937 210.285 126.477 214.181C127.624 215.165 128.477 217.403 127.017 217.798C112.458 221.739 98.0793 226.341 83.9394 231.584C82.8452 231.99 81.7174 231.147 80.8547 230.362L58.1532 209.714C57.3341 208.969 55.9104 209.459 55.317 210.393C54.7236 211.327 54.7231 212.504 54.7418 213.61L55.4766 257.143C53.9402 255.664 53.7261 253.321 53.6229 251.194C53.1376 241.184 53.0242 231.157 52.9108 221.132C52.7468 206.639 52.5829 192.15 51.2955 177.72C50.9382 173.715 50.3798 169.444 47.7332 166.412C49.8182 171.706 50.4309 177.449 50.8541 183.12C51.7368 194.95 51.8795 206.816 52.0223 218.683C52.1643 230.485 52.3063 242.287 53.1763 254.054C53.2573 255.149 53.4033 256.364 54.2413 257.076C55.0794 257.789 56.7767 257.344 56.6944 256.249C55.6117 241.84 55.3807 227.368 56.0028 212.932L77.2835 232.519C78.3773 233.526 79.5521 234.703 79.5842 236.188C79.8413 248.103 80.3861 260.013 81.2178 271.903C81.2985 273.058 81.4417 274.338 82.3152 275.1C83.1887 275.863 84.981 275.432 84.9255 274.276L83.0455 235.118L123.495 223.013C123.178 238.385 123.774 253.76 124.37 269.125C124.415 270.265 124.513 271.531 125.349 272.31C126.185 273.089 127.966 272.719 127.944 271.579ZM79.5301 233.808L56.4846 211.928C56.0912 211.555 55.6657 211 55.9379 210.531C56.3015 209.905 57.2611 210.344 57.7981 210.831L82.2673 233.007C97.2026 227.671 112.323 222.849 127.591 218.554C128.008 219.126 127.775 219.978 127.268 220.471C126.76 220.965 126.054 221.188 125.376 221.394L83.7472 234.088C83.2231 234.248 82.6525 234.443 82.3701 234.911C82.148 235.28 82.1564 235.737 82.1725 236.167C82.3466 240.806 82.642 245.443 82.9375 250.079C83.4754 258.521 84.0133 266.961 83.8178 275.413C81.3057 271.007 81.1501 265.696 81.0581 260.629L80.6412 237.652C80.6163 236.281 80.5261 234.753 79.5301 233.808ZM50.7075 140.732C50.5418 140.837 50.3419 140.873 50.1467 140.875C49.5572 140.878 48.9519 140.527 48.75 139.963C48.5482 139.4 48.8549 138.672 49.425 138.52C49.8632 138.402 50.3317 138.625 50.6511 138.952C51.1245 139.436 51.2777 140.371 50.7075 140.732ZM49.8965 139.222C49.524 139.13 49.283 139.731 49.5382 140.022C49.7934 140.313 50.2635 140.284 50.6006 140.098L49.9077 139.235L49.8965 139.222ZM89.5136 131.352L88.6126 130.661C88.4332 130.523 88.2397 130.38 88.0205 130.373C87.6523 130.363 87.3571 130.772 87.352 131.174C87.3468 131.575 87.5626 131.945 87.8268 132.225C88.1977 132.618 88.7472 132.891 89.2324 132.695C89.7176 132.499 89.9367 131.677 89.5136 131.352ZM87.92 131.367C88.0126 131.143 88.355 131.124 88.468 131.337L88.5163 131.381C88.8812 131.421 89.172 131.838 89.1105 132.233C88.6299 132.131 88.191 131.812 87.92 131.367ZM73.6938 147.629C73.5506 147.356 73.4564 147.032 73.5415 146.733C73.7163 146.12 74.5364 145.985 75.0861 146.263C75.7909 146.619 76.1982 147.717 75.6223 148.273C75.0496 148.824 74.0686 148.343 73.6938 147.629ZM74.5369 147.648L75.0764 147.898C75.3312 147.674 75.3007 147.188 75.02 147.001C74.7394 146.813 74.3065 146.99 74.2207 147.327L74.5366 147.648L74.5369 147.648ZM75.3407 140.775C75.5625 140.269 75.285 139.679 74.8284 139.31C74.5615 139.094 74.2052 138.927 73.8441 138.973C73.3184 139.039 72.9844 139.553 73.0374 140.011C73.0904 140.47 73.4342 140.866 73.8231 141.18C74.2801 141.549 75.1188 141.282 75.3407 140.775ZM74.2908 139.682C74.49 139.781 74.5992 139.974 74.6834 140.159L74.6575 140.24C74.9618 140.329 74.7083 140.792 74.3904 140.752C74.0725 140.712 73.8898 140.423 73.7684 140.165C73.7165 140.055 73.6661 139.932 73.7096 139.819C73.7824 139.63 74.0917 139.582 74.2908 139.682ZM84.253 146.801C84.0013 146.399 83.8947 145.827 84.1847 145.455C84.6337 144.879 85.5415 145.268 86.0158 145.821C86.1996 146.035 86.3692 146.285 86.3943 146.573C86.4392 147.088 85.9601 147.543 85.4688 147.557C84.9774 147.571 84.5236 147.233 84.253 146.801ZM85.4292 146.226L84.9584 145.887C84.766 146.071 84.7288 146.41 84.8761 146.636C85.0233 146.862 85.3362 146.947 85.5692 146.825C85.7306 146.656 85.6399 146.312 85.4189 146.255L85.4292 146.226ZM79.8436 128.247C79.7153 128.421 79.7034 128.644 79.7209 128.853C79.7627 129.353 79.9728 129.869 80.418 130.165C80.8633 130.462 81.5713 130.454 81.9112 130.059C82.3482 129.551 81.9652 128.79 81.4327 128.363C80.98 128.001 80.1789 127.791 79.8436 128.247ZM80.5937 128.781C80.816 128.626 81.2285 128.828 81.1386 129.069L81.2849 129.108C81.4076 129.339 81.4036 129.622 81.2745 129.85C81.0082 129.769 80.7327 129.668 80.5611 129.467C80.3895 129.265 80.3713 128.936 80.5937 128.781ZM41.1659 141.246C41.49 140.743 42.2949 140.801 42.8099 141.122C43.3064 141.432 43.6704 142.144 43.2588 142.554C43.0498 142.762 42.7183 142.801 42.4191 142.778C42.0158 142.747 41.6038 142.614 41.3283 142.327C41.0527 142.041 40.9519 141.579 41.1659 141.246ZM42.2526 141.523L41.7408 141.769C41.9401 142.096 42.3818 142.264 42.758 142.156C42.8108 141.882 42.5696 141.591 42.2821 141.582L42.2526 141.523ZM59.148 135.892C59.5888 136.199 60.1991 136.145 60.6662 135.882C60.8427 135.783 61.014 135.643 61.0748 135.446C61.1891 135.075 60.8702 134.716 60.5505 134.508C60.0492 134.182 59.3185 134.019 58.9138 134.465C58.5504 134.866 58.7072 135.584 59.148 135.892ZM59.3345 135.116C59.31 134.895 59.6162 134.701 59.7607 134.867L59.7885 134.814C60.0458 134.81 60.299 134.971 60.4094 135.211C60.2262 135.329 60.0326 135.452 59.8164 135.465C59.6002 135.477 59.359 135.338 59.3345 135.116ZM55.2946 154.4C55.7383 154.087 56.4389 154.252 56.6979 154.729C56.9568 155.205 56.7132 155.883 56.21 156.086C55.7756 156.26 55.2253 156.062 55.0018 155.651C54.7782 155.239 54.9116 154.669 55.2946 154.4ZM56.1468 155.531C56.2516 155.173 55.9121 154.763 55.5412 154.8C55.4421 155.166 55.7502 155.583 56.1286 155.596L56.1468 155.531ZM47.5026 157.703C47.2892 157.884 47.2417 158.222 47.2592 158.522C47.3075 159.348 48.0176 160.238 48.6866 159.891C49.0711 159.691 49.2444 159.136 49.131 158.677C49.0176 158.219 48.6706 157.866 48.2793 157.684C48.0287 157.568 47.7194 157.52 47.5026 157.703ZM48.3185 158.455C48.5466 158.521 48.652 158.886 48.5015 159.089L48.6596 159.296C48.3517 159.349 47.9481 159.257 47.888 158.913C47.8426 158.654 48.0904 158.39 48.3185 158.455ZM46.0732 152.01C45.977 152.117 45.8565 152.202 45.7232 152.257C45.486 152.356 45.209 152.355 44.9722 152.256C44.4714 152.046 44.2372 151.37 44.5022 150.899C44.7671 150.428 45.4696 150.271 45.9123 150.584C46.355 150.897 46.4351 151.607 46.0732 152.01ZM45.5749 151.894C45.8861 151.665 45.676 151.061 45.2882 151.071C45.1153 151.175 44.9847 151.346 44.9308 151.54C45.1086 151.705 45.3305 151.822 45.5674 151.877L45.5749 151.894ZM93.5378 144.312C93.4143 143.885 93.2108 143.385 92.7156 143.278C92.1841 143.164 91.6791 143.639 91.6495 144.111C91.6197 144.587 91.9997 145.086 92.5446 145.162C93.0894 145.239 93.6715 144.774 93.5378 144.312ZM92.7619 144.167C92.9207 144.351 92.7019 144.663 92.4402 144.626L92.4708 144.536C92.3005 144.498 92.2127 144.298 92.3118 144.172C92.4108 144.047 92.6592 144.044 92.7619 144.167ZM89.7557 137.277C89.6288 136.666 90.2291 136.023 90.8462 136.109C91.5505 136.207 91.9107 137.225 91.425 137.745C90.9393 138.265 89.9005 137.974 89.7557 137.277ZM90.6089 137.555C90.8786 137.618 91.1784 137.369 91.1501 137.094C91.1218 136.818 90.754 136.638 90.528 136.799C90.302 136.959 90.3673 137.384 90.635 137.455L90.6089 137.555ZM66.788 149.666C66.7257 149.45 66.5906 149.258 66.4119 149.131C65.8135 148.705 64.8462 149.305 64.9213 150.056C64.9965 150.807 66.0619 151.186 66.5631 150.641C66.7956 150.388 66.8848 150.002 66.788 149.666ZM65.5879 150.16C65.5273 149.93 65.7652 149.679 65.9864 149.74C66.2075 149.8 66.2971 150.14 66.1365 150.309C65.9759 150.478 65.6484 150.389 65.5879 150.16Z" fill="#00160A"/>
<path fill-rule="evenodd" clip-rule="evenodd" d="M276.53 126.678C276.631 126.754 276.698 126.858 276.748 126.966C276.975 127.45 276.836 128.085 276.318 128.359C275.8 128.633 274.965 128.34 274.944 127.818C274.938 127.652 275.006 127.49 275.084 127.337C275.212 127.086 275.376 126.836 275.64 126.682C275.904 126.528 276.289 126.498 276.53 126.678ZM276.185 127.46C276.344 127.416 276.293 127.163 276.126 127.166C275.697 127.278 275.497 127.792 275.762 128.103C275.973 127.931 276.123 127.704 276.183 127.459L276.185 127.46ZM295.978 135.099C296.372 135.243 296.813 135.039 297.139 134.787C297.496 134.512 297.807 134.143 297.852 133.712C297.896 133.282 297.585 132.804 297.124 132.763C296.8 132.734 296.499 132.913 296.248 133.105C295.912 133.363 295.599 133.681 295.497 134.076C295.396 134.471 295.572 134.951 295.978 135.099ZM297.437 133.608L296.545 134.438L296.527 134.467L296.181 134.237C296.291 133.981 296.412 133.711 296.649 133.545C296.886 133.38 297.278 133.375 297.437 133.608ZM305.702 139.738C305.352 139.39 305.496 138.77 305.74 138.333C305.916 138.016 306.148 137.71 306.474 137.583C306.8 137.455 307.232 137.577 307.361 137.917C307.441 138.13 307.391 138.369 307.332 138.589C307.225 138.99 307.08 139.403 306.781 139.676C306.483 139.949 305.989 140.025 305.702 139.738ZM306.891 138.524C306.925 138.453 306.956 138.374 306.943 138.295C306.93 138.214 306.866 138.144 306.789 138.128C306.298 138.273 305.962 138.853 306.064 139.38C306.417 139.198 306.712 138.893 306.891 138.524ZM302.445 147.897C302.966 148.3 303.706 147.746 304.024 147.176C304.239 146.792 304.4 146.378 304.502 145.952C304.564 145.688 304.571 145.348 304.328 145.218C304.211 145.155 304.068 145.165 303.936 145.188C303.055 145.344 302.314 146.083 302.172 146.948C302.116 147.288 302.168 147.683 302.445 147.897ZM303.897 146.011C303.94 146.143 303.846 146.276 303.758 146.384L302.865 147.474C302.712 146.831 303.103 146.107 303.733 145.869C303.808 145.883 303.874 145.94 303.897 146.011ZM226.442 214.061C225.961 215.208 226.428 216.831 227.644 217.106C239.993 219.907 252.186 223.393 264.147 227.544C268.11 228.919 272.522 230.362 276.373 228.698C277.868 228.051 279.134 226.982 280.376 225.928L293.323 214.939C288.982 220.754 283.613 225.802 277.537 229.782C276.083 230.734 274.544 231.643 272.83 231.939C270.698 232.308 268.531 231.694 266.454 231.086L230.098 220.441C228.646 220.015 226.827 218.621 227.754 217.428C226.554 217.87 226.642 219.574 226.955 220.811L266.285 232.269C268.149 232.812 270.081 233.361 272.004 233.093C273.914 232.828 275.614 231.784 277.231 230.735C284.109 226.27 290.846 221.029 294.655 213.781C294.766 213.569 294.877 213.354 294.989 213.137C295.986 211.2 297.047 209.139 299.055 208.398C299.401 224.661 299.142 240.937 298.28 257.181C298.222 258.27 299.931 258.658 300.734 257.917C301.536 257.175 301.626 255.962 301.662 254.872L303.757 191.963C304.052 183.12 304.421 173.965 308.357 166.036C303.729 173.252 303.319 182.284 303.048 190.845L301.054 253.895C301.004 255.458 300.739 257.352 299.291 257.954L300.056 207.678C297.612 207.457 295.864 209.847 294.414 211.829L294.387 211.867C290.178 217.621 284.267 221.87 278.46 226.018C276.013 227.766 273.02 229.601 270.19 228.577C256.081 223.47 241.694 219.127 227.113 215.573C228.981 212.822 231.771 210.842 234.576 209.05C239.606 205.835 244.894 203.021 250.372 200.642L250.648 200.522L250.756 200.476C253.295 199.377 255.938 198.233 257.616 196.054C259.873 193.123 259.82 189.096 259.726 185.402C259.596 180.327 259.578 175.25 259.673 170.174C259.802 163.252 260.207 156.075 263.432 149.944C259.701 153.223 259.335 158.794 259.24 163.752L258.771 188.059C258.712 191.094 258.493 194.498 256.225 196.523C255.372 197.284 254.31 197.762 253.265 198.232L253.193 198.265C244.82 202.035 236.742 206.456 229.057 211.475C228.014 212.156 226.923 212.913 226.442 214.061ZM270.609 274.965C270.034 275.463 268.827 275.194 268.868 274.453C269.605 260.996 270.423 247.542 271.32 234.094C270.922 233.838 270.563 234.473 270.535 234.931L268.372 269.634C268.259 271.448 268.148 273.284 268.497 275.07C268.699 276.1 270.366 276.233 271.133 275.484C271.9 274.736 271.997 273.588 272.049 272.541L273.987 234.069C274.012 233.58 273.78 232.879 273.289 233.018L271.297 272.902C271.26 273.643 271.184 274.466 270.609 274.965ZM231.029 222.521L229.504 268.719C229.471 269.72 227.931 270.067 227.128 269.441C226.325 268.816 226.121 267.725 226.013 266.729C225.512 262.09 225.91 257.418 226.307 252.761C226.368 252.041 226.429 251.321 226.487 250.602C227.232 241.355 227.42 232.065 227.051 222.797C227.041 222.527 227.469 222.431 227.676 222.61C227.883 222.79 227.914 223.089 227.93 223.358C228.462 232.333 227.837 241.313 227.213 250.292C226.971 253.767 226.729 257.243 226.555 260.717C226.436 263.086 226.352 265.496 226.97 267.79C227.092 268.242 227.271 268.725 227.681 268.967C228.092 269.208 228.773 269.004 228.788 268.537L230.283 223.512C230.299 223.033 230.562 222.369 231.029 222.521ZM311.15 149.487C311.249 149.464 311.356 149.452 311.449 149.497C311.6 149.571 311.664 149.769 311.686 149.95C311.786 150.768 311.266 151.622 310.545 151.826C310.238 151.913 309.808 151.793 309.791 151.442C309.748 150.547 310.358 149.669 311.15 149.487ZM311.058 150.647C311.201 150.508 311.263 150.275 311.212 150.072C310.732 150.19 310.352 150.691 310.329 151.235C310.634 151.18 310.911 150.958 311.054 150.655L311.058 150.647ZM282.433 145.773C282.345 145.615 282.221 145.477 282.074 145.374C281.564 145.016 280.78 145.146 280.412 145.649C280.044 146.152 280.156 146.943 280.649 147.323C281.142 147.704 281.931 147.609 282.321 147.123C282.62 146.749 282.667 146.191 282.433 145.773ZM281.575 146.876C281.217 146.931 280.882 146.511 281.014 146.172C281.146 145.833 281.676 145.752 281.902 146.036C282.128 146.32 281.933 146.822 281.575 146.876ZM308.59 156.213C308.709 156.273 308.815 156.384 308.832 156.524C308.844 156.622 308.812 156.72 308.78 156.813L308.608 157.316C308.491 157.656 308.368 158.008 308.125 158.26C307.883 158.513 307.484 158.634 307.198 158.44C306.704 158.104 306.962 157.279 307.333 156.795C307.645 156.388 308.143 155.991 308.59 156.213ZM307.966 157.504C308.146 157.335 308.216 157.044 308.133 156.804C307.64 156.951 307.346 157.606 307.547 158.108L307.982 157.524L307.966 157.504ZM291.5 147.896C291.46 147.806 291.411 147.717 291.336 147.654C291.095 147.451 290.728 147.601 290.478 147.792C290.156 148.039 289.872 148.364 289.773 148.76C289.675 149.156 289.804 149.627 290.149 149.838C290.75 150.205 291.538 149.555 291.634 148.853C291.679 148.529 291.632 148.194 291.5 147.896ZM290.497 149.354C290.263 149.259 290.23 148.872 290.444 148.738L290.439 148.738L290.98 148.209C291.186 148.631 290.941 149.212 290.497 149.354ZM271.804 144.89C271.682 145.013 271.528 145.103 271.362 145.146C270.681 145.324 269.97 144.509 270.223 143.84C270.475 143.17 271.537 143.05 271.927 143.648C272.172 144.023 272.117 144.572 271.804 144.89ZM271.252 143.865C271.028 143.823 270.792 144.022 270.79 144.254C270.788 144.486 271.02 144.689 271.244 144.653C271.485 144.438 271.52 144.025 271.32 143.771L271.252 143.865ZM314.687 142.717C315.189 142.455 315.412 141.775 315.51 141.149C315.597 140.59 314.91 140.226 314.47 140.48C314.031 140.733 313.819 141.308 313.641 141.837C313.442 142.431 314.184 142.978 314.687 142.717ZM314.796 141.008C314.992 141.065 315.039 141.43 314.867 141.55L314.867 141.545C314.852 141.857 314.564 142.111 314.299 142.048C314.311 141.637 314.501 141.238 314.796 141.008ZM293.36 143.261C292.853 143.259 292.506 142.58 292.631 142.031C292.756 141.481 293.212 141.095 293.69 140.905C294.032 140.77 294.416 141.102 294.494 141.499C294.572 141.896 294.419 142.307 294.211 142.64C294.009 142.963 293.713 143.263 293.36 143.261ZM293.92 142.069L293.977 141.639C293.511 141.551 293.045 142.092 293.141 142.609C293.237 142.684 293.362 142.711 293.476 142.683C293.567 142.445 293.711 142.233 293.892 142.072L293.92 142.069ZM282.437 139.92C282.968 139.93 283.337 139.476 283.474 139.05C283.579 138.722 283.579 138.313 283.249 138.111C282.882 137.886 282.343 138.071 282.035 138.351C281.762 138.6 281.581 138.938 281.637 139.271C281.692 139.604 282.031 139.912 282.437 139.92ZM282.658 138.584C282.867 138.52 283.072 138.794 282.91 138.921L282.896 138.899C282.816 139.092 282.659 139.263 282.455 139.378C282.248 139.129 282.347 138.743 282.658 138.584ZM302.133 153.295C302.151 153.207 302.165 153.114 302.132 153.03C302.083 152.903 301.938 152.838 301.802 152.818C301.215 152.731 300.704 153.237 300.429 153.762C300.187 154.226 300.121 154.935 300.601 155.146C301.061 155.349 301.533 154.876 301.753 154.424C301.928 154.066 302.056 153.686 302.133 153.295ZM301.029 154.066C300.94 153.911 301.029 153.686 301.199 153.632L301.181 153.646C301.307 153.635 301.399 153.797 301.349 153.913C301.298 154.03 301.155 154.083 301.029 154.066ZM286.789 131.679C286.504 131.943 286.188 132.186 285.823 132.279C285.709 132.308 285.623 132.17 285.581 132.052C285.352 131.4 285.387 130.569 285.878 130.116C286.368 129.662 287.327 129.946 287.354 130.643C287.37 131.058 287.08 131.408 286.789 131.679ZM286.668 130.513C286.231 130.481 285.923 131.07 286.053 131.524C286.442 131.403 286.728 130.968 286.705 130.53L286.668 130.513ZM273.987 134.895C273.967 134.557 273.734 134.213 273.416 134.193C273.159 134.177 272.927 134.371 272.779 134.596C272.547 134.948 272.465 135.448 272.69 135.805C272.916 136.161 273.5 136.22 273.704 135.85C273.866 135.558 274.007 135.234 273.987 134.895ZM273.104 135.693L273.065 135.238L273.072 135.232C273.133 135.035 273.261 134.862 273.426 134.752C273.585 135.085 273.428 135.547 273.104 135.693ZM263.855 141.65C264.075 142.016 263.931 142.511 263.726 142.887C263.656 143.015 263.575 143.144 263.454 143.212C263.197 143.357 262.878 143.162 262.714 142.901C262.473 142.516 262.462 141.948 262.749 141.604C263.036 141.26 263.621 141.261 263.855 141.65ZM263.057 142.225C263.057 142.358 263.202 142.463 263.313 142.409C263.424 142.355 263.452 142.166 263.362 142.077C263.269 142.007 263.119 142.105 263.13 142.228L263.057 142.225ZM266.082 135.146C266.549 135.165 266.947 134.631 266.797 134.186C266.761 134.078 266.699 133.98 266.619 133.9C266.285 133.571 265.633 133.699 265.448 134.13C265.262 134.562 265.615 135.127 266.082 135.146ZM266.191 134.169C266.4 134.173 266.262 134.565 266.057 134.523L266.059 134.532C265.979 134.407 266.049 134.213 266.191 134.169Z" fill="#00160A"/>
<path fill-rule="evenodd" clip-rule="evenodd" d="M311.501 133.377C314.048 134.247 316.699 135.182 318.562 137.137C320.895 139.586 321.566 143.273 321.112 146.637C320.657 150 319.219 153.137 317.798 156.215C316.192 159.693 314.586 163.172 312.98 166.651C307.686 164.085 303.132 160.213 298.068 157.212C287.02 150.665 273.823 148.482 261.02 149.085C259.943 149.136 258.543 148.983 258.278 147.93C258.199 147.617 258.251 147.287 258.306 146.968C259.542 139.777 261.948 132.79 265.399 126.372C265.91 125.421 266.452 124.471 267.197 123.691C268.915 121.89 271.54 121.206 274.018 121.315C276.495 121.425 278.883 122.235 281.232 123.037C291.322 126.484 301.411 129.93 311.501 133.377ZM265.472 127.819C262.464 133.874 259.95 140.29 259.257 147.025C259.227 147.315 259.204 147.625 259.339 147.883C259.611 148.406 260.331 148.432 260.915 148.393C274.458 147.501 288.455 150.166 299.945 157.443C303.872 159.93 307.48 162.928 311.553 165.164C311.732 165.263 311.937 165.363 312.133 165.306C312.331 165.248 312.451 165.05 312.551 164.869C315.026 160.369 317.218 155.711 319.11 150.933C319.781 149.24 320.421 147.505 320.587 145.689C321.005 141.117 317.997 136.452 313.681 134.979C302.619 131.203 291.557 127.426 280.495 123.65C278.473 122.959 276.424 122.263 274.295 122.109C272.165 121.955 269.911 122.401 268.269 123.775C267.005 124.833 266.207 126.339 265.472 127.819Z" fill="#00160A"/>
<path fill-rule="evenodd" clip-rule="evenodd" d="M175.585 156.201C174.934 156.566 174.088 156.001 173.841 155.302C173.649 154.757 173.693 154.172 173.737 153.59C173.75 153.425 173.762 153.261 173.769 153.097C173.835 151.551 173.405 150.048 172.976 148.548C172.843 148.081 172.709 147.614 172.591 147.146C170.622 139.37 173.1 130.641 178.872 125.022C179.611 126.428 181.583 126.799 183.085 126.251C184.586 125.703 185.72 124.484 186.786 123.302C187.852 122.119 188.968 120.891 190.456 120.309C189.342 120.119 188.183 120.195 187.105 120.529C186.939 119.017 185.341 117.817 183.827 118.067C182.793 118.238 181.973 117.27 181.33 116.45C180.686 115.631 179.658 114.776 178.71 115.22C179.928 115.949 179.831 117.742 179.318 119.057C179.224 119.297 179.121 119.539 179.018 119.781C178.555 120.869 178.081 121.983 178.369 123.1C178.643 124.163 177.776 125.143 177.032 125.956C172.857 130.515 170.613 136.756 170.937 142.903C169.709 141.252 168.149 139.843 166.376 138.785C166.045 138.588 165.704 138.4 165.362 138.212C164.151 137.544 162.932 136.873 162.143 135.766C161.213 134.46 159.491 133.895 157.878 133.944C156.266 133.992 154.721 134.561 153.211 135.123C152.792 135.279 152.303 135.522 152.271 135.964C152.247 136.294 152.5 136.575 152.749 136.795C155.132 138.903 158.847 139.378 161.692 137.939C162.728 137.415 163.981 137.919 164.972 138.521C170.728 142.018 173.953 149.187 172.73 155.766C171.77 156.124 170.738 156.077 169.7 156.029C169.129 156.003 168.557 155.976 167.994 156.017C166.408 156.133 164.593 157.283 164.87 158.835C165.515 162.431 166.159 166.128 165.446 169.712C165.239 170.751 164.921 171.764 164.603 172.776C164.373 173.506 164.144 174.235 163.956 174.975C163.485 176.832 163.277 178.753 163.341 180.666C163.358 181.179 163.4 181.712 163.658 182.157C164.038 182.814 164.799 183.145 165.524 183.385C167.862 184.162 170.362 184.457 172.819 184.245C174.676 184.085 176.769 183.428 177.474 181.718C177.919 180.638 177.685 179.416 177.46 178.271C176.39 172.831 175.71 167.07 177.585 161.848C177.65 161.668 177.718 161.488 177.786 161.306C178.186 160.239 178.596 159.147 178.422 158.036C178.218 156.736 176.74 155.552 175.585 156.201ZM170.425 172.674L168.924 175.862C168.748 176.236 168.641 176.804 169.029 176.955C170.074 175.497 170.817 173.827 171.199 172.079C171.339 171.436 171.921 170.958 172.553 170.756C173.185 170.554 173.866 170.58 174.529 170.622C174.901 170.646 175.311 170.692 175.561 170.966C175.759 171.184 175.807 171.494 175.846 171.784L176.886 179.542C176.978 180.224 177.065 180.942 176.804 181.579C176.362 182.656 175.1 183.133 173.948 183.357C171.119 183.907 168.132 183.634 165.452 182.58C165.074 182.432 164.687 182.257 164.431 181.943C164.09 181.525 164.048 180.947 164.041 180.41C163.996 176.93 164.795 173.443 166.351 170.323L169.983 171.64C170.204 171.72 170.45 171.823 170.534 172.041C170.614 172.246 170.519 172.474 170.425 172.674ZM170.719 170.826C170.48 171.099 170.023 171.222 169.746 170.986C168.8 170.186 167.488 169.828 166.262 170.037C166.701 167.441 166.375 164.817 166.049 162.188C165.893 160.935 165.737 159.681 165.664 158.428C165.656 158.282 165.652 158.123 165.736 158.003C165.876 157.807 166.167 157.816 166.407 157.846L172.129 158.557C172.325 158.581 172.528 158.608 172.696 158.711C173.17 159.001 173.121 159.687 173.013 160.229L171.108 169.825C171.038 170.18 170.959 170.553 170.719 170.826ZM172.068 168.562C172.931 165.256 173.518 161.879 173.822 158.478C175.224 158.708 176.707 158.413 177.91 157.664C177.67 158.788 177.37 159.906 177.069 161.023C176.356 163.68 175.643 166.334 175.74 169.064L175.741 169.089C175.75 169.32 175.758 169.56 175.663 169.77C175.564 169.988 175.312 170.159 175.084 170.083C174.018 169.724 172.781 169.914 171.875 170.576C171.713 169.92 171.892 169.236 172.063 168.583L172.068 168.562ZM179.541 124.474C178.936 123.587 178.811 122.421 179.112 121.393C179.253 120.912 179.482 120.441 179.709 119.973C180.163 119.035 180.612 118.109 180.34 117.143C180.262 116.864 180.169 116.478 180.435 116.359C181.488 117.267 182.181 118.575 182.336 119.95C182.382 120.352 182.376 120.786 182.152 121.124C181.934 121.456 181.561 121.625 181.19 121.794C181.06 121.853 180.929 121.912 180.806 121.978C180.331 122.233 179.893 122.799 180.159 123.265C182.444 121.599 185.373 120.822 188.193 121.133C187.437 121.609 186.743 122.18 186.13 122.827C185.918 123.052 185.709 123.29 185.498 123.529C184.588 124.562 183.654 125.625 182.322 125.789C181.249 125.921 180.146 125.361 179.541 124.474ZM157.642 134.603C159.333 134.519 161.265 135.538 162.033 136.611L160.225 137.689C158.205 138.523 157.215 138.212 156.748 138.065C156.724 138.058 156.701 138.05 156.679 138.044C155.303 137.625 154 136.975 152.84 136.13C154.358 135.386 155.951 134.687 157.642 134.603ZM186.143 120.243C186.058 120.359 185.905 120.399 185.765 120.431L183.447 120.967C183.335 120.992 183.216 121.018 183.108 120.981C182.822 120.882 182.843 120.472 182.956 120.194C183.068 119.915 183.205 119.567 183.001 119.345C182.754 119.076 183.214 118.718 183.58 118.69C184.446 118.625 185.334 118.951 185.947 119.56C186.132 119.743 186.297 120.035 186.143 120.243ZM172.976 157.204C173.172 157.428 173.059 157.887 172.759 157.871C170.924 157.772 169.098 157.494 167.318 157.041C168.893 156.673 170.537 156.795 172.15 156.918C172.449 156.941 172.78 156.98 172.976 157.204ZM177.1 157.006C177.181 157.19 177.068 157.431 176.875 157.489C175.92 157.773 174.931 157.944 173.936 157.996C173.68 157.829 173.755 157.405 174 157.222C174.244 157.039 174.574 157.029 174.88 157.026L177.1 157.006ZM181.815 174.701C195.683 174.805 210.27 175.098 222.257 182.17C223.407 182.849 223.422 184.655 222.619 185.732C221.816 186.808 220.493 187.323 219.23 187.749C215.245 189.093 211.14 190.069 206.981 190.662C203.049 191.222 199.078 191.438 195.111 191.617C171.966 192.662 148.48 192.404 126.056 186.497C125.964 185.675 126.695 185.021 127.365 184.549C137.587 177.353 150.363 175.25 162.663 173.333C149.785 173.742 137.021 177.415 125.851 183.926C124.408 184.768 122.778 186.157 123.228 187.782C123.599 189.119 125.154 189.647 126.489 189.957C149.164 195.228 172.642 196.933 195.827 194.991C198.749 194.746 201.666 194.444 204.58 194.114C212.078 193.263 219.955 192.06 225.881 187.326C226.388 186.921 226.898 186.462 227.107 185.843C227.663 184.194 225.884 182.763 224.342 181.992C211.264 175.456 196.286 172.888 181.815 174.701ZM225.821 183.87C226.561 184.809 226.563 186.443 225.522 187.019C222.127 188.899 218.68 190.774 214.938 191.77C212.957 192.296 210.921 192.569 208.89 192.829C204.945 193.334 200.995 193.797 197.034 194.154C173.04 196.316 148.706 194.55 125.259 188.946C124.165 188.684 123.694 187.213 124.149 186.171C124.507 185.353 125.253 184.794 126.083 184.452C125.507 184.934 125.352 186.046 125.838 186.728C126.484 187.633 127.669 187.914 128.751 188.124C141.562 190.618 154.528 192.484 167.57 192.781C171.75 192.876 175.932 192.81 180.114 192.744C192.446 192.549 204.903 192.338 216.876 189.337C219.297 188.73 221.835 187.919 223.45 185.992C223.757 185.625 224.032 185.206 224.101 184.73C224.248 183.727 223.474 182.852 222.759 182.142C223.887 182.514 225.08 182.931 225.821 183.87ZM126.777 184.218C126.506 184.204 126.272 184.294 126.083 184.452C126.31 184.358 126.543 184.28 126.777 184.218ZM127.528 183.825C127.34 183.868 127.117 183.643 127.234 183.487L127.329 183.588C127.415 183.357 127.747 183.27 127.933 183.429C127.835 183.598 127.716 183.782 127.528 183.825ZM206.022 270.333C207.027 273.51 209.486 276.49 212.749 276.905C213.929 277.056 214.816 275.321 214.016 274.429C213.215 273.537 211.43 274.27 211.467 275.476C209.416 274.661 207.979 272.693 207.253 270.583C206.528 268.472 206.415 266.204 206.309 263.972L205.877 254.911C205.732 251.869 205.463 248.527 203.342 246.37C202.882 245.902 202.35 245.511 201.82 245.12L201.82 245.12L201.82 245.12L201.82 245.12L201.819 245.12C201.14 244.62 200.462 244.121 199.936 243.463C198.706 241.921 198.527 239.798 198.465 237.815C198.125 226.902 199.792 215.928 203.355 205.625C203.589 204.95 203.831 204.276 204.073 203.602C205.049 200.884 206.027 198.161 206.463 195.31C205.914 195.168 205.532 195.842 205.358 196.389L201.844 207.425C200.927 210.304 200.009 213.188 199.327 216.133C197.724 223.056 197.445 230.213 197.172 237.319C197.106 239.035 197.059 240.84 197.835 242.366C198.397 243.47 199.32 244.296 200.248 245.126C200.921 245.728 201.597 246.332 202.138 247.046C203.335 248.623 203.805 250.635 204.148 252.595C204.6 255.178 204.883 257.792 204.996 260.414C205.024 261.051 205.041 261.69 205.059 262.33L205.059 262.331C205.134 265.042 205.21 267.763 206.022 270.333ZM212.246 275.115C212.345 274.733 212.922 274.597 213.168 274.903L213.234 274.847C213.477 275.155 213.312 275.697 212.936 275.799C212.561 275.902 212.146 275.497 212.246 275.115ZM137.009 279.656C136.849 278.632 138.039 277.962 139.038 277.76L139.159 277.736C140.133 277.54 141.266 277.313 141.626 276.388C143.076 272.667 143.153 268.556 143.229 264.471C143.319 259.626 143.409 254.817 145.788 250.733C146.928 248.775 148.531 247.134 150.252 245.68C150.384 245.569 150.517 245.458 150.65 245.346C152.045 244.18 153.505 242.959 153.995 241.213C154.269 240.239 154.202 239.203 154.134 238.191L152.806 218.627C152.636 216.129 152.466 213.629 152.13 211.149C151.44 206.068 150.055 201.11 148.456 196.245C149.715 196.968 150.284 198.482 150.703 199.89C153.117 208.017 153.68 216.577 154.228 225.049L155.087 238.319C155.244 240.745 155.111 243.73 152.989 244.847C149.621 246.62 146.942 249.709 145.631 253.331C144.373 256.806 144.372 260.562 144.371 264.292C144.37 265.137 144.37 265.981 144.355 266.819C144.275 271.36 143.593 276.241 140.533 279.545C140.029 280.09 139.426 280.601 138.7 280.715C137.974 280.829 137.125 280.395 137.009 279.656ZM137.679 279.63C137.644 279.846 137.86 280.036 138.074 280.052C138.288 280.067 138.491 279.959 138.675 279.847C139.265 279.489 139.809 279.053 140.29 278.553C139.916 278.267 139.383 278.276 138.952 278.464C138.522 278.652 138.176 278.992 137.855 279.34C137.778 279.424 137.698 279.516 137.679 279.63ZM179.96 247.797C179.882 254.102 180.699 260.379 181.515 266.63C181.742 268.37 181.977 270.14 182.69 271.74C183.012 272.464 183.645 273.246 184.409 273.071C184.647 273.016 184.857 272.87 185.034 272.699C185.729 272.031 185.943 270.798 185.291 270.087C184.639 269.377 183.168 269.75 183.124 270.72C181.848 263.857 181.032 256.906 180.683 249.931C180.644 249.155 180.562 248.277 179.96 247.797ZM184.783 270.572C184.817 270.705 184.745 270.839 184.675 270.957L184.112 271.915L183.738 271.843C183.697 271.459 183.78 271.062 183.972 270.728C184.15 270.418 184.695 270.224 184.783 270.572ZM180.074 236.415C179.88 234.317 179.959 232.204 180.054 230.099C180.544 219.181 181.442 208.282 182.746 197.434C182.777 197.174 182.838 196.87 183.072 196.761C183.557 196.535 183.825 197.348 183.765 197.889C182.312 210.881 181.356 223.934 181.008 237.006C181.001 237.292 180.574 237.385 180.36 237.2C180.146 237.014 180.1 236.7 180.074 236.415Z" fill="#00160A"/>
<path d="M185.764 247.601C182.863 247.404 179.962 247.208 177.06 247.011C173.059 246.74 169.046 246.468 165.111 245.702C162.364 245.168 159.664 244.394 157.054 243.393C156.77 243.285 156.474 243.164 156.283 242.929C155.919 242.48 156.101 241.772 156.523 241.376C156.945 240.98 157.534 240.819 158.099 240.683C170.057 237.801 182.611 239.656 194.722 241.824C195.639 241.988 196.583 242.165 197.363 242.67C198.142 243.174 198.723 244.096 198.535 244.999C198.314 246.058 197.189 246.662 196.149 246.996C192.829 248.061 189.246 247.837 185.764 247.601" fill="white"/>
<path fill-rule="evenodd" clip-rule="evenodd" d="M185.764 247.601C182.863 247.404 179.962 247.208 177.06 247.011C173.059 246.74 169.046 246.468 165.111 245.702C162.364 245.168 159.664 244.394 157.054 243.393C156.77 243.285 156.474 243.164 156.283 242.929C155.919 242.48 156.101 241.772 156.523 241.376C156.945 240.98 157.534 240.819 158.099 240.683C170.057 237.801 182.611 239.656 194.722 241.824C195.639 241.988 196.583 242.165 197.363 242.67C198.142 243.174 198.723 244.096 198.535 244.999C198.314 246.058 197.189 246.662 196.149 246.996C192.829 248.061 189.246 247.837 185.764 247.601M156.784 242.574C166.194 245.789 176.312 246.197 186.261 246.575C188.703 246.668 191.147 246.76 193.59 246.699C194.555 246.675 195.603 246.594 196.321 245.956C197.038 245.317 197.08 243.922 196.185 243.563C190.991 241.477 185.283 241.091 179.687 240.74C173.026 240.323 166.291 239.923 159.717 241.062C158.593 241.256 157.342 241.589 156.784 242.574Z" fill="#00160A"/>
<path fill-rule="evenodd" clip-rule="evenodd" d="M300.074 202.932C300.648 199.762 300.953 196.543 300.986 193.321C301.037 188.374 300.447 183.426 300.726 178.487C301.005 173.548 302.262 168.458 305.493 164.734C305.197 166.784 304.559 168.783 303.613 170.622C301.752 174.24 301.689 178.492 301.666 182.567C301.632 188.838 301.597 195.109 301.563 201.38C301.552 203.292 300.242 205.042 298.555 205.918C296.869 206.794 294.872 206.896 292.999 206.59C291.511 206.348 290.074 205.863 288.644 205.38C280.172 202.52 271.7 199.659 263.227 196.799C262.546 196.569 261.743 196.189 261.694 195.466C260.948 184.514 260.906 173.514 261.569 162.557C261.854 157.842 262.484 152.668 265.93 149.467C264.884 151.687 263.834 153.921 263.191 156.291C262.346 159.409 262.23 162.673 262.118 165.902C261.782 175.675 261.446 185.495 262.592 195.205C262.646 195.666 262.808 196.239 263.264 196.299C267.036 196.8 270.651 198.108 274.231 199.407C279.193 201.208 284.155 203.009 289.116 204.81C290.323 205.248 291.547 205.69 292.825 205.799C294.654 205.956 296.465 205.424 298.224 204.898C298.748 204.742 299.305 204.563 299.644 204.131C299.909 203.795 299.998 203.355 300.074 202.932Z" fill="#00160A"/>
<path fill-rule="evenodd" clip-rule="evenodd" d="M292.128 208.179C284.609 207.695 277.646 204.353 270.449 202.172C267.918 201.405 265.345 200.779 262.774 200.154C261.103 199.747 259.431 199.341 257.76 198.934C261.028 198.098 264.457 199.153 267.662 200.198C275.817 202.858 283.973 205.519 292.128 208.179Z" fill="#00160A"/>
<path fill-rule="evenodd" clip-rule="evenodd" d="M159.35 135.854C159.598 135.862 159.819 135.896 160.173 135.982L162.22 136.517C162.33 136.546 162.432 136.572 162.521 136.594C162.649 136.626 162.727 136.756 162.695 136.884C162.662 137.012 162.533 137.089 162.405 137.057L161.668 136.867L160.276 136.5L160.172 136.473C159.78 136.375 159.568 136.339 159.335 136.332L159.276 136.332C158.842 136.348 156.8 136.549 155.483 136.635C155.352 136.644 155.238 136.544 155.23 136.413C155.221 136.281 155.321 136.167 155.452 136.159L155.951 136.124C157.261 136.025 158.981 135.858 159.321 135.854L159.35 135.854Z" fill="#00160A"/>
<path fill-rule="evenodd" clip-rule="evenodd" d="M159.072 135.007C159.17 134.919 159.321 134.927 159.409 135.025L160.18 135.885C160.268 135.983 160.26 136.134 160.162 136.222C160.064 136.31 159.913 136.301 159.825 136.203L159.053 135.344C158.965 135.246 158.974 135.095 159.072 135.007Z" fill="#00160A"/>
<path fill-rule="evenodd" clip-rule="evenodd" d="M160.121 135.878C160.228 135.955 160.251 136.104 160.174 136.211L159.456 137.202C159.379 137.308 159.23 137.332 159.123 137.255C159.016 137.178 158.992 137.028 159.07 136.922L159.787 135.931C159.865 135.824 160.014 135.801 160.121 135.878Z" fill="#00160A"/>
<path fill-rule="evenodd" clip-rule="evenodd" d="M156.342 135.344C156.403 135.228 156.548 135.183 156.664 135.245L157.896 135.895C158.012 135.957 158.057 136.101 157.995 136.218C157.934 136.334 157.789 136.379 157.673 136.317L156.441 135.667C156.325 135.605 156.28 135.461 156.342 135.344Z" fill="#00160A"/>
<path fill-rule="evenodd" clip-rule="evenodd" d="M157.89 135.981C157.975 136.082 157.962 136.233 157.861 136.317L156.592 137.382C156.491 137.466 156.34 137.453 156.256 137.352C156.171 137.251 156.184 137.101 156.285 137.016L157.554 135.952C157.655 135.867 157.806 135.88 157.89 135.981Z" fill="#00160A"/>
<path fill-rule="evenodd" clip-rule="evenodd" d="M169.029 176.955C168.641 176.804 168.748 176.236 168.924 175.862C169.424 174.799 169.924 173.736 170.425 172.674C170.519 172.474 170.614 172.246 170.534 172.041C170.45 171.823 170.204 171.72 169.983 171.64C168.772 171.201 167.562 170.762 166.351 170.323C164.795 173.443 163.996 176.93 164.041 180.41C164.048 180.947 164.09 181.525 164.431 181.943C164.686 182.257 165.074 182.432 165.452 182.58C168.132 183.634 171.119 183.907 173.948 183.357C175.099 183.133 176.362 182.656 176.804 181.579C177.065 180.942 176.977 180.224 176.886 179.542C176.539 176.956 176.193 174.37 175.846 171.784C175.807 171.494 175.759 171.184 175.561 170.966C175.311 170.692 174.901 170.646 174.529 170.622C173.866 170.58 173.185 170.554 172.553 170.756C171.921 170.958 171.339 171.436 171.198 172.079C170.817 173.827 170.074 175.497 169.029 176.955Z" fill="#E7EAEE"/>
<path fill-rule="evenodd" clip-rule="evenodd" d="M166.262 170.037C167.488 169.828 168.8 170.186 169.746 170.986C170.023 171.222 170.48 171.099 170.719 170.826C170.959 170.553 171.038 170.18 171.108 169.825C171.743 166.626 172.378 163.428 173.013 160.229C173.121 159.687 173.17 159.001 172.696 158.711C172.528 158.608 172.325 158.581 172.129 158.557C170.222 158.32 168.315 158.083 166.407 157.846C166.167 157.816 165.876 157.807 165.737 158.003C165.652 158.123 165.656 158.282 165.664 158.428C165.89 162.309 166.911 166.203 166.262 170.037" fill="white"/>
<path fill-rule="evenodd" clip-rule="evenodd" d="M177.91 157.664C176.707 158.413 175.223 158.708 173.822 158.478C173.518 161.879 172.931 165.256 172.068 168.562C171.896 169.222 171.712 169.914 171.874 170.576C172.78 169.914 174.018 169.724 175.084 170.083C175.312 170.159 175.564 169.988 175.663 169.77C175.762 169.552 175.749 169.303 175.74 169.064C175.602 165.186 177.099 161.46 177.91 157.664" fill="white"/>
<path fill-rule="evenodd" clip-rule="evenodd" d="M167.318 157.041C169.098 157.494 170.924 157.772 172.759 157.871C173.059 157.887 173.172 157.428 172.976 157.204C172.78 156.98 172.449 156.941 172.15 156.918C170.537 156.795 168.893 156.673 167.318 157.041" fill="white"/>
<path fill-rule="evenodd" clip-rule="evenodd" d="M173.936 157.996C174.931 157.944 175.92 157.773 176.875 157.489C177.068 157.431 177.181 157.19 177.099 157.006C176.36 157.013 175.62 157.02 174.88 157.026C174.574 157.029 174.244 157.039 174 157.222C173.755 157.405 173.68 157.829 173.936 157.996" fill="white"/>
<path fill-rule="evenodd" clip-rule="evenodd" d="M179.112 121.393C178.811 122.421 178.936 123.587 179.541 124.474C180.146 125.361 181.249 125.921 182.322 125.789C183.962 125.587 185 124.022 186.13 122.827C186.743 122.18 187.437 121.609 188.193 121.133C185.373 120.822 182.444 121.599 180.158 123.265C179.893 122.799 180.331 122.233 180.806 121.978C181.281 121.724 181.857 121.572 182.152 121.124C182.375 120.786 182.382 120.352 182.336 119.95C182.181 118.575 181.488 117.267 180.434 116.359C180.169 116.478 180.262 116.864 180.34 117.143C180.748 118.591 179.536 119.949 179.112 121.393Z" fill="#FFADAD"/>
<path fill-rule="evenodd" clip-rule="evenodd" d="M185.765 120.431C185.905 120.399 186.058 120.359 186.143 120.243C186.297 120.035 186.132 119.743 185.947 119.56C185.334 118.951 184.446 118.625 183.58 118.69C183.214 118.718 182.754 119.076 183.001 119.345C183.205 119.567 183.067 119.915 182.955 120.194C182.843 120.472 182.822 120.882 183.108 120.981C183.216 121.018 183.335 120.992 183.447 120.967C184.219 120.788 184.992 120.61 185.765 120.431Z" fill="#FFADAD"/>
</svg>
